<mxfile host="Electron" agent="Mozilla/5.0 (Windows NT 10.0; Win64; x64) AppleWebKit/537.36 (KHTML, like Gecko) draw.io/24.7.17 Chrome/128.0.6613.36 Electron/32.0.1 Safari/537.36" version="24.7.17">
  <diagram name="Página-1" id="aQwT2njNyb8c0mF089h3">
    <mxGraphModel dx="1035" dy="1785" grid="1" gridSize="10" guides="1" tooltips="1" connect="1" arrows="1" fold="1" page="1" pageScale="1" pageWidth="827" pageHeight="1169" math="0" shadow="0">
      <root>
        <mxCell id="0" />
        <mxCell id="1" parent="0" />
        <mxCell id="UhJz3QDpEwgQe15Lkxdn-58" style="edgeStyle=orthogonalEdgeStyle;rounded=0;orthogonalLoop=1;jettySize=auto;html=1;exitX=1;exitY=0.5;exitDx=0;exitDy=0;entryX=0.5;entryY=0;entryDx=0;entryDy=0;" edge="1" parent="1" source="UhJz3QDpEwgQe15Lkxdn-2" target="UhJz3QDpEwgQe15Lkxdn-57">
          <mxGeometry relative="1" as="geometry" />
        </mxCell>
        <mxCell id="UhJz3QDpEwgQe15Lkxdn-2" value="Inicia sesión en la aplicación" style="rounded=1;whiteSpace=wrap;html=1;fontSize=12;glass=0;strokeWidth=1;shadow=0;" vertex="1" parent="1">
          <mxGeometry x="137" y="80" width="120" height="40" as="geometry" />
        </mxCell>
        <mxCell id="UhJz3QDpEwgQe15Lkxdn-53" style="edgeStyle=orthogonalEdgeStyle;rounded=0;orthogonalLoop=1;jettySize=auto;html=1;exitX=0.5;exitY=1;exitDx=0;exitDy=0;entryX=0.5;entryY=0;entryDx=0;entryDy=0;" edge="1" parent="1" source="UhJz3QDpEwgQe15Lkxdn-54" target="UhJz3QDpEwgQe15Lkxdn-2">
          <mxGeometry relative="1" as="geometry" />
        </mxCell>
        <mxCell id="UhJz3QDpEwgQe15Lkxdn-55" value="Administrador" style="swimlane;" vertex="1" parent="1">
          <mxGeometry y="-44" width="320" height="1394" as="geometry" />
        </mxCell>
        <mxCell id="UhJz3QDpEwgQe15Lkxdn-54" value="" style="ellipse;html=1;shape=startState;fillColor=#000000;strokeColor=#000000;" vertex="1" parent="UhJz3QDpEwgQe15Lkxdn-55">
          <mxGeometry x="182" y="44" width="30" height="30" as="geometry" />
        </mxCell>
        <mxCell id="UhJz3QDpEwgQe15Lkxdn-12" value="Ingresa al menú principal" style="rounded=1;whiteSpace=wrap;html=1;fontSize=12;glass=0;strokeWidth=1;shadow=0;" vertex="1" parent="UhJz3QDpEwgQe15Lkxdn-55">
          <mxGeometry x="80" y="344" width="120" height="40" as="geometry" />
        </mxCell>
        <mxCell id="UhJz3QDpEwgQe15Lkxdn-14" value="Selecciona la opción &quot;Modificar Mesa&quot;" style="rounded=1;whiteSpace=wrap;html=1;fontSize=12;glass=0;strokeWidth=1;shadow=0;" vertex="1" parent="UhJz3QDpEwgQe15Lkxdn-55">
          <mxGeometry x="80" y="414" width="120" height="40" as="geometry" />
        </mxCell>
        <mxCell id="UhJz3QDpEwgQe15Lkxdn-11" style="edgeStyle=orthogonalEdgeStyle;rounded=0;orthogonalLoop=1;jettySize=auto;html=1;exitX=0.5;exitY=1;exitDx=0;exitDy=0;entryX=0.5;entryY=0;entryDx=0;entryDy=0;" edge="1" parent="UhJz3QDpEwgQe15Lkxdn-55" source="UhJz3QDpEwgQe15Lkxdn-12" target="UhJz3QDpEwgQe15Lkxdn-14">
          <mxGeometry relative="1" as="geometry" />
        </mxCell>
        <mxCell id="UhJz3QDpEwgQe15Lkxdn-64" value="Selecciona la mesa" style="rounded=1;whiteSpace=wrap;html=1;fontSize=12;glass=0;strokeWidth=1;shadow=0;" vertex="1" parent="UhJz3QDpEwgQe15Lkxdn-55">
          <mxGeometry x="80" y="589" width="120" height="40" as="geometry" />
        </mxCell>
        <mxCell id="UhJz3QDpEwgQe15Lkxdn-79" style="edgeStyle=orthogonalEdgeStyle;rounded=0;orthogonalLoop=1;jettySize=auto;html=1;exitX=0.5;exitY=1;exitDx=0;exitDy=0;entryX=0.5;entryY=0;entryDx=0;entryDy=0;" edge="1" parent="UhJz3QDpEwgQe15Lkxdn-55" source="UhJz3QDpEwgQe15Lkxdn-77">
          <mxGeometry relative="1" as="geometry">
            <mxPoint x="140" y="903" as="targetPoint" />
          </mxGeometry>
        </mxCell>
        <mxCell id="UhJz3QDpEwgQe15Lkxdn-77" value="Selecciona el campo que se desea modificar" style="rounded=1;whiteSpace=wrap;html=1;fontSize=12;glass=0;strokeWidth=1;shadow=0;" vertex="1" parent="UhJz3QDpEwgQe15Lkxdn-55">
          <mxGeometry x="80" y="833" width="120" height="40" as="geometry" />
        </mxCell>
        <mxCell id="UhJz3QDpEwgQe15Lkxdn-90" value="Modifica el campo seleccionado" style="rounded=1;whiteSpace=wrap;html=1;fontSize=12;glass=0;strokeWidth=1;shadow=0;" vertex="1" parent="UhJz3QDpEwgQe15Lkxdn-55">
          <mxGeometry x="80" y="904" width="120" height="40" as="geometry" />
        </mxCell>
        <mxCell id="UhJz3QDpEwgQe15Lkxdn-56" value="Sistema" style="swimlane;" vertex="1" parent="1">
          <mxGeometry x="321" y="-44" width="320" height="1394" as="geometry" />
        </mxCell>
        <mxCell id="UhJz3QDpEwgQe15Lkxdn-61" style="edgeStyle=orthogonalEdgeStyle;rounded=0;orthogonalLoop=1;jettySize=auto;html=1;exitX=0.5;exitY=1;exitDx=0;exitDy=0;entryX=0.5;entryY=0;entryDx=0;entryDy=0;" edge="1" parent="UhJz3QDpEwgQe15Lkxdn-56" source="UhJz3QDpEwgQe15Lkxdn-57" target="UhJz3QDpEwgQe15Lkxdn-5">
          <mxGeometry relative="1" as="geometry" />
        </mxCell>
        <mxCell id="UhJz3QDpEwgQe15Lkxdn-57" value="Controla los datos" style="rounded=1;whiteSpace=wrap;html=1;fontSize=12;glass=0;strokeWidth=1;shadow=0;" vertex="1" parent="UhJz3QDpEwgQe15Lkxdn-56">
          <mxGeometry x="92" y="164" width="120" height="40" as="geometry" />
        </mxCell>
        <mxCell id="UhJz3QDpEwgQe15Lkxdn-5" value="Control ok?" style="rhombus;whiteSpace=wrap;html=1;shadow=0;fontFamily=Helvetica;fontSize=12;align=center;strokeWidth=1;spacing=6;spacingTop=-4;" vertex="1" parent="UhJz3QDpEwgQe15Lkxdn-56">
          <mxGeometry x="102" y="224" width="100" height="80" as="geometry" />
        </mxCell>
        <mxCell id="UhJz3QDpEwgQe15Lkxdn-60" value="No" style="text;html=1;align=center;verticalAlign=middle;whiteSpace=wrap;rounded=0;" vertex="1" parent="UhJz3QDpEwgQe15Lkxdn-56">
          <mxGeometry x="219" y="234" width="60" height="30" as="geometry" />
        </mxCell>
        <mxCell id="UhJz3QDpEwgQe15Lkxdn-63" value="Si" style="text;html=1;align=center;verticalAlign=middle;whiteSpace=wrap;rounded=0;" vertex="1" parent="UhJz3QDpEwgQe15Lkxdn-56">
          <mxGeometry x="69" y="294" width="60" height="30" as="geometry" />
        </mxCell>
        <mxCell id="UhJz3QDpEwgQe15Lkxdn-16" value="Muestra todas las mesas" style="rounded=1;whiteSpace=wrap;html=1;fontSize=12;glass=0;strokeWidth=1;shadow=0;" vertex="1" parent="UhJz3QDpEwgQe15Lkxdn-56">
          <mxGeometry x="92" y="494" width="120" height="46" as="geometry" />
        </mxCell>
        <mxCell id="UhJz3QDpEwgQe15Lkxdn-87" style="edgeStyle=orthogonalEdgeStyle;rounded=0;orthogonalLoop=1;jettySize=auto;html=1;exitX=0.5;exitY=1;exitDx=0;exitDy=0;" edge="1" parent="UhJz3QDpEwgQe15Lkxdn-56" source="UhJz3QDpEwgQe15Lkxdn-67" target="UhJz3QDpEwgQe15Lkxdn-86">
          <mxGeometry relative="1" as="geometry" />
        </mxCell>
        <mxCell id="UhJz3QDpEwgQe15Lkxdn-67" value="Recupera la información de la mesa" style="rounded=1;whiteSpace=wrap;html=1;fontSize=12;glass=0;strokeWidth=1;shadow=0;" vertex="1" parent="UhJz3QDpEwgQe15Lkxdn-56">
          <mxGeometry x="89" y="684" width="120" height="40" as="geometry" />
        </mxCell>
        <mxCell id="UhJz3QDpEwgQe15Lkxdn-50" value="" style="group;fillColor=none;gradientColor=none;" vertex="1" connectable="0" parent="UhJz3QDpEwgQe15Lkxdn-56">
          <mxGeometry x="119" y="964" width="90" height="60" as="geometry" />
        </mxCell>
        <mxCell id="UhJz3QDpEwgQe15Lkxdn-83" value="Muestra un mensaje de confirmación" style="rounded=1;whiteSpace=wrap;html=1;fontSize=12;glass=0;strokeWidth=1;shadow=0;" vertex="1" parent="UhJz3QDpEwgQe15Lkxdn-50">
          <mxGeometry x="-30" y="20" width="120" height="40" as="geometry" />
        </mxCell>
        <mxCell id="UhJz3QDpEwgQe15Lkxdn-86" value="Muestra los datos de la mesa" style="rounded=1;whiteSpace=wrap;html=1;fontSize=12;glass=0;strokeWidth=1;shadow=0;" vertex="1" parent="UhJz3QDpEwgQe15Lkxdn-56">
          <mxGeometry x="89" y="754" width="120" height="40" as="geometry" />
        </mxCell>
        <mxCell id="UhJz3QDpEwgQe15Lkxdn-59" style="edgeStyle=orthogonalEdgeStyle;rounded=0;orthogonalLoop=1;jettySize=auto;html=1;exitX=1;exitY=0.5;exitDx=0;exitDy=0;entryX=0;entryY=0.5;entryDx=0;entryDy=0;" edge="1" parent="1" source="UhJz3QDpEwgQe15Lkxdn-5" target="UhJz3QDpEwgQe15Lkxdn-2">
          <mxGeometry relative="1" as="geometry">
            <mxPoint x="610" y="350" as="targetPoint" />
            <Array as="points">
              <mxPoint x="620" y="220" />
              <mxPoint x="620" y="1330" />
              <mxPoint x="10" y="1330" />
              <mxPoint x="10" y="100" />
            </Array>
          </mxGeometry>
        </mxCell>
        <mxCell id="UhJz3QDpEwgQe15Lkxdn-62" style="edgeStyle=orthogonalEdgeStyle;rounded=0;orthogonalLoop=1;jettySize=auto;html=1;exitX=0.5;exitY=1;exitDx=0;exitDy=0;entryX=0.5;entryY=0;entryDx=0;entryDy=0;" edge="1" parent="1" source="UhJz3QDpEwgQe15Lkxdn-5" target="UhJz3QDpEwgQe15Lkxdn-12">
          <mxGeometry relative="1" as="geometry" />
        </mxCell>
        <mxCell id="UhJz3QDpEwgQe15Lkxdn-13" style="edgeStyle=orthogonalEdgeStyle;rounded=0;orthogonalLoop=1;jettySize=auto;html=1;exitX=0.5;exitY=1;exitDx=0;exitDy=0;entryX=0.5;entryY=0;entryDx=0;entryDy=0;" edge="1" parent="1" source="UhJz3QDpEwgQe15Lkxdn-14" target="UhJz3QDpEwgQe15Lkxdn-16">
          <mxGeometry relative="1" as="geometry" />
        </mxCell>
        <mxCell id="UhJz3QDpEwgQe15Lkxdn-65" style="edgeStyle=orthogonalEdgeStyle;rounded=0;orthogonalLoop=1;jettySize=auto;html=1;exitX=0.5;exitY=1;exitDx=0;exitDy=0;entryX=0.5;entryY=0;entryDx=0;entryDy=0;" edge="1" parent="1" source="UhJz3QDpEwgQe15Lkxdn-16" target="UhJz3QDpEwgQe15Lkxdn-64">
          <mxGeometry relative="1" as="geometry" />
        </mxCell>
        <mxCell id="UhJz3QDpEwgQe15Lkxdn-68" style="edgeStyle=orthogonalEdgeStyle;rounded=0;orthogonalLoop=1;jettySize=auto;html=1;exitX=0.5;exitY=1;exitDx=0;exitDy=0;entryX=0.5;entryY=0;entryDx=0;entryDy=0;" edge="1" parent="1" source="UhJz3QDpEwgQe15Lkxdn-64" target="UhJz3QDpEwgQe15Lkxdn-67">
          <mxGeometry relative="1" as="geometry" />
        </mxCell>
        <mxCell id="UhJz3QDpEwgQe15Lkxdn-88" style="edgeStyle=orthogonalEdgeStyle;rounded=0;orthogonalLoop=1;jettySize=auto;html=1;exitX=0.5;exitY=1;exitDx=0;exitDy=0;entryX=0.5;entryY=0;entryDx=0;entryDy=0;" edge="1" parent="1" source="UhJz3QDpEwgQe15Lkxdn-86" target="UhJz3QDpEwgQe15Lkxdn-77">
          <mxGeometry relative="1" as="geometry" />
        </mxCell>
        <mxCell id="UhJz3QDpEwgQe15Lkxdn-91" style="edgeStyle=orthogonalEdgeStyle;rounded=0;orthogonalLoop=1;jettySize=auto;html=1;exitX=0.5;exitY=1;exitDx=0;exitDy=0;entryX=0.5;entryY=0;entryDx=0;entryDy=0;" edge="1" parent="1" source="UhJz3QDpEwgQe15Lkxdn-90" target="UhJz3QDpEwgQe15Lkxdn-83">
          <mxGeometry relative="1" as="geometry" />
        </mxCell>
        <mxCell id="UhJz3QDpEwgQe15Lkxdn-94" style="edgeStyle=orthogonalEdgeStyle;rounded=0;orthogonalLoop=1;jettySize=auto;html=1;exitX=0;exitY=0.5;exitDx=0;exitDy=0;entryX=0;entryY=0.5;entryDx=0;entryDy=0;" edge="1" parent="1" source="UhJz3QDpEwgQe15Lkxdn-92" target="UhJz3QDpEwgQe15Lkxdn-86">
          <mxGeometry relative="1" as="geometry" />
        </mxCell>
        <mxCell id="UhJz3QDpEwgQe15Lkxdn-97" style="edgeStyle=orthogonalEdgeStyle;rounded=0;orthogonalLoop=1;jettySize=auto;html=1;exitX=0.5;exitY=1;exitDx=0;exitDy=0;entryX=0.5;entryY=0;entryDx=0;entryDy=0;" edge="1" parent="1" source="UhJz3QDpEwgQe15Lkxdn-92" target="UhJz3QDpEwgQe15Lkxdn-96">
          <mxGeometry relative="1" as="geometry" />
        </mxCell>
        <mxCell id="UhJz3QDpEwgQe15Lkxdn-92" value="Acepta?" style="rhombus;whiteSpace=wrap;html=1;shadow=0;fontFamily=Helvetica;fontSize=12;align=center;strokeWidth=1;spacing=6;spacingTop=-4;" vertex="1" parent="1">
          <mxGeometry x="80" y="1040" width="100" height="80" as="geometry" />
        </mxCell>
        <mxCell id="UhJz3QDpEwgQe15Lkxdn-93" style="edgeStyle=orthogonalEdgeStyle;rounded=0;orthogonalLoop=1;jettySize=auto;html=1;exitX=0.5;exitY=1;exitDx=0;exitDy=0;entryX=0.5;entryY=0;entryDx=0;entryDy=0;" edge="1" parent="1" source="UhJz3QDpEwgQe15Lkxdn-83" target="UhJz3QDpEwgQe15Lkxdn-92">
          <mxGeometry relative="1" as="geometry" />
        </mxCell>
        <mxCell id="UhJz3QDpEwgQe15Lkxdn-51" value="" style="ellipse;whiteSpace=wrap;html=1;aspect=fixed;fillStyle=auto;" vertex="1" parent="1">
          <mxGeometry x="440" y="1260" width="60" height="60" as="geometry" />
        </mxCell>
        <mxCell id="UhJz3QDpEwgQe15Lkxdn-52" value="Fin" style="ellipse;whiteSpace=wrap;html=1;aspect=fixed;fillStyle=solid;fillColor=#000000;" vertex="1" parent="1">
          <mxGeometry x="445" y="1264" width="50" height="50" as="geometry" />
        </mxCell>
        <mxCell id="UhJz3QDpEwgQe15Lkxdn-100" style="edgeStyle=orthogonalEdgeStyle;rounded=0;orthogonalLoop=1;jettySize=auto;html=1;exitX=0.5;exitY=1;exitDx=0;exitDy=0;entryX=0.5;entryY=0;entryDx=0;entryDy=0;" edge="1" parent="1" source="UhJz3QDpEwgQe15Lkxdn-96" target="UhJz3QDpEwgQe15Lkxdn-51">
          <mxGeometry relative="1" as="geometry" />
        </mxCell>
        <mxCell id="UhJz3QDpEwgQe15Lkxdn-96" value="Modifica la mesa" style="rounded=1;whiteSpace=wrap;html=1;fontSize=12;glass=0;strokeWidth=1;shadow=0;" vertex="1" parent="1">
          <mxGeometry x="410" y="1169" width="120" height="40" as="geometry" />
        </mxCell>
        <mxCell id="UhJz3QDpEwgQe15Lkxdn-98" value="Si" style="text;html=1;align=center;verticalAlign=middle;whiteSpace=wrap;rounded=0;" vertex="1" parent="1">
          <mxGeometry x="160" y="1110" width="60" height="30" as="geometry" />
        </mxCell>
        <mxCell id="UhJz3QDpEwgQe15Lkxdn-99" value="No" style="text;html=1;align=center;verticalAlign=middle;whiteSpace=wrap;rounded=0;" vertex="1" parent="1">
          <mxGeometry x="50" y="1050" width="60" height="30" as="geometry" />
        </mxCell>
      </root>
    </mxGraphModel>
  </diagram>
</mxfile>
